# xmcd
#
# Track frame offsets: 
#        150
#        11452
#        24052
#        38149
#        53129
#        64894
#        80362
#        93664
#        106631
#        124307
#        137917
#
# Disc length: 2077 seconds
#
# Revision: 0
# Processed by: cddbd v1.5.2PL0 Copyright (c) Steve Scherf et al.
# Submitted via: ExactAudioCopyFreeDBPlugin 1.0
#
DISCID=85081b0b
DTITLE=Union Citygrass - Tridsať strieborných
DYEAR=2006
DGENRE=Bluegrass
TTITLE0=Raz ti poviem
TTITLE1=Hlúpa hra
TTITLE2=Je to tak ľahké
TTITLE3=Mýlím sa rád
TTITLE4=Stačí minúť len drobné
TTITLE5=Tridsať strieborných
TTITLE6=Mám len dlaní pár
TTITLE7=Čakám kým zavoláš
TTITLE8=Priatelia
TTITLE9=To pravé zmysel má
TTITLE10=Blízko snov
EXTD=
EXTT0=
EXTT1=
EXTT2=
EXTT3=
EXTT4=
EXTT5=
EXTT6=
EXTT7=
EXTT8=
EXTT9=
EXTT10=
PLAYORDER=
